Coordinates
version=1
nRows=29
nColumns=24
inDegrees=yes

Units are S.I. units (second, meters, Newtons, ...)
Angles are in degrees.

endheader
time	pelvis_tilt	pelvis_list	pelvis_rotation	pelvis_tx	pelvis_ty	pelvis_tz	hip_flexion_r	hip_adduction_r	hip_rotation_r	knee_angle_r	ankle_angle_r	subtalar_angle_r	mtp_angle_r	hip_flexion_l	hip_adduction_l	hip_rotation_l	knee_angle_l	ankle_angle_l	subtalar_angle_l	mtp_angle_l	lumbar_extension	lumbar_bending	lumbar_rotation
      5.46000000	     -0.02530886	      3.67783688	      0.78459596	      0.91950980	      1.00940257	     -0.17229500	     21.29570089	     -1.11810643	      4.89417414	     -5.18801069	     12.18928397	     -4.43794340	      0.00000000	    -18.24435487	      7.34886918	      6.17507369	     -6.09227541	     15.09042448	     -5.32374387	      0.00000000	    -12.00625936	     -3.58933164	     -7.40560741
      5.46500000	      0.06359631	      3.62575084	      0.79029850	      0.92672634	      1.00898087	     -0.17192168	     21.27964652	     -0.96722191	      4.78886620	     -6.03322182	     12.38165305	     -3.96045129	      0.00000000	    -18.31682691	      7.24394706	      5.78166175	     -6.94473552	     15.23949322	     -4.52110958	      0.00000000	    -12.03792356	     -3.52521590	     -7.32459406
      5.47000000	      0.15204627	      3.56107012	      0.81288584	      0.93398025	      1.00860100	     -0.17157468	     21.25933320	     -0.81386837	      4.65712657	     -6.92182845	     12.46922632	     -3.47445099	      0.00000000	    -18.36116545	      7.11870283	      5.34822054	     -7.84575811	     15.35827483	     -3.70304605	      0.00000000	    -12.06623281	     -3.43852316	     -7.24631896
      5.47500000	      0.22990874	      3.46834043	      0.84349370	      0.94127538	      1.00826498	     -0.17122651	     21.24347829	     -0.63900542	      4.50554910	     -7.82429469	     12.41492171	     -3.00779047	      0.00000000	    -18.37334711	      6.95680034	      4.87721739	     -8.77990365	     15.43097401	     -2.87554186	      0.00000000	    -12.07745533	     -3.31938686	     -7.17844272
      5.48000000	      0.29452580	      3.35122985	      0.88065866	      0.94859701	      1.00797864	     -0.17088349	     21.23034239	     -0.44852138	      4.37377557	     -8.70953101	     12.20524540	     -2.59214577	      0.00000000	    -18.35050817	      6.76190615	      4.39836092	     -9.74760219	     15.45347760	     -2.05156784	      0.00000000	    -12.07243192	     -3.16729796	     -7.11898952
      5.48500000	      0.34572219	      3.19877763	      0.92493322	      0.95592600	      1.00775329	     -0.17055170	     21.22199969	     -0.23150196	      4.25964615	     -9.56265843	     11.85331488	     -2.25158333	      0.00000000	    -18.27892000	      6.52224034	      3.87633834	    -10.77188506	     15.44948979	     -1.19876625	      0.00000000	    -12.05260270	     -2.97329059	     -7.04923343
      5.49000000	      0.38208493	      3.01525351	      0.96823030	      0.96323821	      1.00761242	     -0.17020884	     21.22239907	      0.01341120	      4.17391343	    -10.37034484	     11.34454218	     -2.04132152	      0.00000000	    -18.16242765	      6.24330361	      3.32597002	    -11.83462359	     15.37684725	     -0.35470947	      0.00000000	    -12.01981212	     -2.74579667	     -6.97255342
      5.49500000	      0.40470669	      2.79658427	      1.01237440	      0.97054284	      1.00756502	     -0.16985668	     21.22736371	      0.29188809	      4.13373799	    -11.12798662	     10.73014151	     -1.98247649	      0.00000000	    -17.99573998	      5.91889439	      2.73877594	    -12.94924218	     15.23542871	      0.48744504	      0.00000000	    -11.97373782	     -2.47645436	     -6.88937215
      5.50000000	      0.41449862	      2.54860612	      1.05625336	      0.97783786	      1.00760839	     -0.16951510	     21.23802191	      0.59956302	      4.15609791	    -11.84713828	     10.06402637	     -2.08962166	      0.00000000	    -17.77880599	      5.55626079	      2.12461120	    -14.11614517	     15.01086763	      1.31163619	      0.00000000	    -11.91586477	     -2.17367815	     -6.80109155
      5.50500000	      0.41602009	      2.28368429	      1.10341703	      0.98513347	      1.00774627	     -0.16917026	     21.25214731	      0.92653509	      4.23706312	    -12.54847947	      9.40680666	     -2.35261548	      0.00000000	    -17.51764947	      5.16471424	      1.48749872	    -15.33175460	     14.68472839	      2.10286928	      0.00000000	    -11.84877434	     -1.85771965	     -6.71138595
      5.51000000	      0.41158252	      2.01375760	      1.15082758	      0.99244623	      1.00796476	     -0.16884599	     21.26544440	      1.26193350	      4.36487809	    -13.24152268	      8.81848906	     -2.74534704	      0.00000000	    -17.21162747	      4.75508039	      0.82015373	    -16.60271690	     14.24836916	      2.88869088	      0.00000000	    -11.76973245	     -1.53108620	     -6.61986318
      5.51500000	      0.40931416	      1.75353617	      1.19462943	      0.99974322	      1.00823955	     -0.16852859	     21.27930570	      1.59438818	      4.53094267	    -13.95610964	      8.36189299	     -3.22171624	      0.00000000	    -16.86700799	      4.34559200	      0.14255041	    -17.92959973	     13.69693005	      3.61124296	      0.00000000	    -11.69907192	     -1.21643286	     -6.52221988
      5.52000000	      0.40303836	      1.49502466	      1.21201363	      1.00700108	      1.00852743	     -0.16823255	     21.30755500	      1.93795602	      4.75669866	    -14.71148139	      8.04553986	     -3.73893420	      0.00000000	    -16.47710182	      3.93700584	     -0.55304184	    -19.31154566	     13.05672076	      4.27247215	      0.00000000	    -11.63245678	     -0.88869830	     -6.42904739
      5.52500000	      0.40482293	      1.26916018	      1.25195028	      1.01428569	      1.00888807	     -0.16796883	     21.31908662	      2.24070741	      4.90550808	    -15.48125421	      7.92390352	     -4.18890460	      0.00000000	    -16.05566290	      3.53869181	     -1.24434934	    -20.74075246	     12.24235830	      4.87600235	      0.00000000	    -11.57165288	     -0.60452158	     -6.34858876
      5.53000000	      0.41047866	      1.06951825	      1.29228558	      1.02156245	      1.00927849	     -0.16771643	     21.32148991	      2.51642049	      4.99841063	    -16.26359259	      7.98093267	     -4.55952484	      0.00000000	    -15.59366807	      3.15004476	     -1.94870288	    -22.22246212	     11.28802968	      5.42001617	      0.00000000	    -11.51651542	     -0.35111573	     -6.27675177
      5.53500000	      0.41167941	      0.88996314	      1.32861633	      1.02882699	      1.00968202	     -0.16745440	     21.31906199	      2.77194889	      5.04087746	    -17.04390629	      8.18832049	     -4.84240812	      0.00000000	    -15.07980496	      2.76258177	     -2.67337141	    -23.75945426	     10.19040663	      5.90879978	      0.00000000	    -11.45805960	     -0.11930406	     -6.20551339
      5.54000000	      0.41252869	      0.72986696	      1.36696422	      1.03605870	      1.01010390	     -0.16718306	     21.30066761	      3.00323568	      5.02130367	    -17.80138820	      8.51309482	     -5.02941222	      0.00000000	    -14.51891528	      2.37448702	     -3.40434766	    -25.34313644	      8.93595659	      6.30940023	      0.00000000	    -11.40479121	      0.08421428	     -6.14454316
      5.54500000	      0.37103523	      0.58628558	      1.39669570	      1.04327438	      1.01047041	     -0.16688196	     21.30315414	      3.21516368	      4.96519276	    -18.51920926	      8.94052674	     -5.13390213	      0.00000000	    -13.86504669	      1.98222002	     -4.16285092	    -26.97874716	      7.54339747	      6.63542472	      0.00000000	    -11.29963258	      0.26629716	     -6.08754397
      5.55000000	      0.35915328	      0.44452655	      1.43137472	      1.05038688	      1.01091450	     -0.16661133	     21.25455125	      3.41078030	      4.80755290	    -19.18599883	      9.38376470	     -5.16369980	      0.00000000	    -13.19629765	      1.57405347	     -4.89594990	    -28.64700879	      5.97837765	      6.85161698	      0.00000000	    -11.25315652	      0.45300333	     -6.02327202
      5.55500000	      0.38485284	      0.29540544	      1.49527687	      1.05743641	      1.01140114	     -0.16631461	     21.12101976	      3.60536879	      4.61101957	    -19.76131518	      9.85224569	     -5.22274049	      0.00000000	    -12.51888147	      1.12733701	     -5.61205473	    -30.35563470	      4.27725994	      6.91812331	      0.00000000	    -11.26102253	      0.63559298	     -5.96213767
      5.56000000	      0.20013524	      0.20664349	      1.51892301	      1.06439220	      1.01160364	     -0.16597054	     21.20862330	      3.73195181	      4.41992779	    -20.33114455	     10.40710513	     -5.09860824	      0.00000000	    -11.57029704	      0.73471376	     -6.33410976	    -32.10948133	      2.44725185	      6.95988014	      0.00000000	    -11.02131962	      0.74497157	     -5.93074415
      5.56500000	      0.22110200	      0.02083801	      1.59420649	      1.07134628	      1.01213549	     -0.16561458	     21.00080755	      3.95202199	      4.18934212	    -20.74462771	     10.82727770	     -5.12734319	      0.00000000	    -10.82395110	      0.21203980	     -6.98077268	    -33.83634284	      0.47254826	      6.81443945	      0.00000000	    -11.03374587	      0.95860770	     -5.89621457
      5.57000000	      0.08202819	     -0.10758473	      1.66245498	      1.07816282	      1.01239891	     -0.16526560	     20.95790232	      4.09977087	      3.92906235	    -21.13902170	     11.35259536	     -5.04394586	      0.00000000	     -9.85731454	     -0.25872239	     -7.60426222	    -35.61011101	     -1.55653823	      6.55639772	      0.00000000	    -10.86862868	      1.10595787	     -5.86285418
      5.57500000	      0.13714569	     -0.34569673	      1.74300911	      1.08495450	      1.01293077	     -0.16481904	     20.64543373	      4.37530441	      3.69197813	    -21.39850401	     11.74506391	     -5.09915252	      0.00000000	     -9.08428729	     -0.87390096	     -8.20432070	    -37.36673011	     -3.60776885	      6.22135327	      0.00000000	    -10.94568905	      1.36265362	     -5.79100352
      5.58000000	     -0.02932622	     -0.49287714	      1.84670226	      1.09165372	      1.01320710	     -0.16450350	     20.56323431	      4.52449680	      3.42250823	    -21.65308098	     12.22142135	     -5.00250591	      0.00000000	     -8.04530335	     -1.36984092	     -8.66331024	    -39.11076737	     -5.77134287	      5.69394750	      0.00000000	    -10.75540867	      1.52605235	     -5.79220669
      5.58500000	     -0.00273621	     -0.77229490	      1.92432986	      1.09833287	      1.01369288	     -0.16406721	     20.22520415	      4.83608106	      3.19194493	    -21.79108615	     12.59742786	     -5.00086573	      0.00000000	     -7.20342224	     -2.03000270	     -9.16004539	    -40.85196090	     -7.82740764	      5.14553212	      0.00000000	    -10.80794221	      1.83251680	     -5.68107477
      5.59000000	     -0.20794977	     -0.92719807	      2.05601464	      1.10478951	      1.01389562	     -0.16377044	     20.15894771	      4.97888687	      2.89091232	    -21.97235517	     13.05848097	     -4.87125405	      0.00000000	     -6.06431660	     -2.52756885	     -9.47736054	    -42.59514227	     -9.95951047	      4.37260915	      0.00000000	    -10.60562183	      1.99264796	     -5.68400343
      5.59500000	     -0.25441294	     -1.15732257	      2.17971888	      1.11136822	      1.01434499	     -0.16343543	     19.85149983	      5.21995191	      2.66603970	    -22.01845109	     13.43801080	     -4.85640232	      0.00000000	     -5.11098807	     -3.11070938	     -9.78937926	    -44.27080712	    -12.07162121	      3.53900261	      0.00000000	    -10.56496668	      2.23624235	     -5.63513288
      5.60000000	     -0.31049286	     -1.39559885	      2.30998189	      1.11779965	      1.01478293	     -0.16319320	     19.55000147	      5.45825713	      2.44203033	    -22.04174376	     13.80042143	     -4.78630301	      0.00000000	     -4.11822661	     -3.67971261	    -10.03117201	    -45.93760586	    -14.13087487	      2.57808742	      0.00000000	    -10.53994357	      2.50002217	     -5.55313934
